<?xml version="1.0" encoding="iso-8859-1"?>
<!-- Generator: Adobe Illustrator 19.0.0, SVG Export Plug-In . SVG Version: 6.00 Build 0)  -->
<svg version="1.1" id="Layer_1" xmlns="http://www.w3.org/2000/svg" xmlns:xlink="http://www.w3.org/1999/xlink" x="0px" y="0px"
	 viewBox="0 0 512 512" style="enable-background:new 0 0 512 512;" xml:space="preserve">
<circle style="fill:#334D5C;" cx="256" cy="256" r="256"/>
<path style="opacity:0.1;enable-background:new    ;" d="M311.147,109.333v9.386l-9.386-9.386H210.24v9.386l-9.386-9.386h-91.52
	v293.333l106.101,106.102C228.65,510.873,242.191,512,256,512c141.385,0,256-114.615,256-256c0-13.808-1.127-27.349-3.232-40.565
	L402.667,109.333H311.147z"/>
<rect x="109.333" y="109.333" style="fill:#27A2DB;" width="91.521" height="293.333"/>
<rect x="210.24" y="109.333" style="fill:#44C4A1;" width="91.521" height="293.333"/>
<rect x="311.146" y="109.333" style="fill:#E56353;" width="91.521" height="293.333"/>
<rect x="109.333" y="393.552" style="fill:#2D93BA;" width="91.521" height="9.12"/>
<rect x="210.24" y="393.552" style="fill:#3EA69B;" width="91.521" height="9.12"/>
<rect x="311.146" y="393.552" style="fill:#D15241;" width="91.521" height="9.12"/>
<g>
	<rect x="123.469" y="134.24" style="fill:#FFFFFF;" width="63.253" height="116.385"/>
	<rect x="224.375" y="134.24" style="fill:#FFFFFF;" width="63.253" height="116.385"/>
	<rect x="325.271" y="134.24" style="fill:#FFFFFF;" width="63.253" height="116.385"/>
</g>
<g>
	<rect x="123.469" y="242.667" style="fill:#E1E6E9;" width="63.253" height="7.99"/>
	<rect x="132.104" y="144.427" style="fill:#E1E6E9;" width="46" height="5.808"/>
	<rect x="132.104" y="164.458" style="fill:#E1E6E9;" width="46" height="5.808"/>
	<rect x="132.104" y="184.51" style="fill:#E1E6E9;" width="46" height="5.808"/>
	<rect x="132.104" y="204.583" style="fill:#E1E6E9;" width="46" height="5.808"/>
	<rect x="132.104" y="224.635" style="fill:#E1E6E9;" width="46" height="5.808"/>
	<rect x="233" y="144.427" style="fill:#E1E6E9;" width="46" height="5.808"/>
	<rect x="233" y="164.458" style="fill:#E1E6E9;" width="46" height="5.808"/>
	<rect x="233" y="184.51" style="fill:#E1E6E9;" width="46" height="5.808"/>
	<rect x="233" y="204.583" style="fill:#E1E6E9;" width="46" height="5.808"/>
	<rect x="233" y="224.635" style="fill:#E1E6E9;" width="46" height="5.808"/>
	<rect x="333.865" y="144.427" style="fill:#E1E6E9;" width="46" height="5.808"/>
	<rect x="333.865" y="164.458" style="fill:#E1E6E9;" width="46" height="5.808"/>
	<rect x="333.865" y="184.51" style="fill:#E1E6E9;" width="46" height="5.808"/>
	<rect x="333.865" y="204.583" style="fill:#E1E6E9;" width="46" height="5.808"/>
	<rect x="333.865" y="224.635" style="fill:#E1E6E9;" width="46" height="5.808"/>
	<rect x="224.375" y="242.667" style="fill:#E1E6E9;" width="63.253" height="7.99"/>
	<rect x="325.271" y="242.667" style="fill:#E1E6E9;" width="63.253" height="7.99"/>
</g>
<circle style="fill:#D5D6DB;" cx="155.094" cy="347.521" r="17.216"/>
<circle style="fill:#FFFFFF;" cx="155.094" cy="347.521" r="12.918"/>
<circle style="fill:#D5D6DB;" cx="256" cy="347.521" r="17.216"/>
<circle style="fill:#FFFFFF;" cx="256" cy="347.521" r="12.918"/>
<circle style="fill:#D5D6DB;" cx="356.896" cy="347.521" r="17.216"/>
<circle style="fill:#FFFFFF;" cx="356.896" cy="347.521" r="12.918"/>
<g>
</g>
<g>
</g>
<g>
</g>
<g>
</g>
<g>
</g>
<g>
</g>
<g>
</g>
<g>
</g>
<g>
</g>
<g>
</g>
<g>
</g>
<g>
</g>
<g>
</g>
<g>
</g>
<g>
</g>
</svg>
