<?xml version="1.0" encoding="iso-8859-1"?>
<!-- Generator: Adobe Illustrator 21.0.0, SVG Export Plug-In . SVG Version: 6.00 Build 0)  -->
<svg xmlns="http://www.w3.org/2000/svg" xmlns:xlink="http://www.w3.org/1999/xlink" version="1.1" id="Capa_1" x="0px" y="0px" viewBox="0 0 512 512" style="enable-background:new 0 0 512 512;" xml:space="preserve" width="512" height="512">
<g>
	<g>
		<g>
			<g>
				<g>
					<g>
						<g>
							<g>
								<g>
									<circle style="fill:#555A66;" cx="256" cy="256" r="256"/>
								</g>
							</g>
						</g>
					</g>
				</g>
			</g>
		</g>
	</g>
	<g>
		<path style="fill:#333940;" d="M509.628,290.855L306.042,87.269l-91.088-14.102L167.81,77l-39.286,51.524l15.921,120.342    l92.973,92.973c-0.429,2.233-0.868,4.513-1.314,6.83l-42.734-42.734l21.642,149.005l56.574,56.574    C394.062,504.156,493.31,410.702,509.628,290.855z"/>
		<path style="fill:#333940;" d="M215.012,454.94l-0.058-0.058C214.954,455.006,214.975,455.02,215.012,454.94z"/>
	</g>
	<g>
		<path style="fill:#65B1FC;" d="M306.042,248.866l-21.213-21.213c32.855-32.855,32.855-86.315,0-119.17    c-15.916-15.916-37.077-24.681-59.586-24.681c-22.508,0-43.669,8.765-59.585,24.681c-32.855,32.855-32.855,86.315,0,119.17    l-21.213,21.213c-44.552-44.552-44.552-117.044,0-161.596c21.58-21.581,50.278-33.468,80.798-33.468c0.002,0-0.001,0,0.001,0    c30.521,0,59.216,11.886,80.798,33.468C350.595,131.822,350.595,204.313,306.042,248.866z"/>
	</g>
	<g>
		<path style="fill:#5C8EFF;" d="M306.042,87.269c-21.541-21.541-50.168-33.421-80.625-33.466v30.002    c22.444,0.045,43.537,8.802,59.412,24.677c32.855,32.855,32.855,86.315,0,119.17l21.213,21.213    C350.595,204.313,350.595,131.822,306.042,87.269z"/>
	</g>
	<g>
		<path style="fill:#65B1FC;" d="M274.898,217.722l-21.213-21.213c15.683-15.683,15.683-41.2,0-56.883    c-15.685-15.683-41.201-15.682-56.884,0c-15.683,15.683-15.683,41.2,0,56.883l-21.213,21.213c-27.38-27.38-27.38-71.93,0-99.309    c27.381-27.379,71.931-27.38,99.31,0C302.278,145.792,302.278,190.342,274.898,217.722z"/>
	</g>
	<g>
		<path style="fill:#5C8EFF;" d="M274.898,118.413c-13.646-13.646-31.557-20.487-49.481-20.531v29.986    c10.242,0.044,20.47,3.96,28.268,11.758c15.683,15.683,15.683,41.2,0,56.883l21.213,21.213    C302.278,190.342,302.278,145.792,274.898,118.413z"/>
	</g>
	<g>
		<path style="fill:#FFC170;" d="M341.612,301.638L341.612,301.638c-4.956,0-9.53,1.633-13.215,4.389v-3.507    c0-12.195-9.886-22.081-22.081-22.081h0c-7.406,0-13.955,3.65-17.961,9.245v-1.885c0-12.195-9.886-22.081-22.081-22.081h0    c-8.866,0-16.507,5.228-20.021,12.768v-56.131c0-12.195-9.886-22.081-22.081-22.081h0c-12.195,0-22.081,9.886-22.081,22.081    v98.431l-5.595-10.282c-7.138-13.117-23.558-17.964-36.675-10.826h0c-13.118,7.138-17.965,23.559-10.827,36.676l65.958,118.528    h119.744l0,0c18.692-21.372,28.994-48.801,28.994-77.194v-53.97C363.693,311.524,353.807,301.638,341.612,301.638z"/>
	</g>
	<g>
		<path style="fill:#FC9942;" d="M341.612,301.638c-4.956,0-9.53,1.633-13.215,4.389v-3.507c0-12.195-9.886-22.081-22.081-22.081    c-7.406,0-13.955,3.65-17.961,9.245v-1.885c0-12.195-9.886-22.081-22.081-22.081c-3.923,0-7.605,1.027-10.797,2.822v186.342h79.22    l0,0c18.692-21.372,28.994-48.801,28.994-77.194v-53.969C363.692,311.524,353.807,301.638,341.612,301.638z"/>
	</g>
</g>















</svg>
